<svg id="Слой_2" viewBox="0 0 512 512" xmlns="http://www.w3.org/2000/svg" xmlns:xlink="http://www.w3.org/1999/xlink" data-name="Слой 2"><radialGradient id="radial-gradient" cx="267.5" cy="317.05" gradientTransform="matrix(1.01 0 0 1 -3.42 0)" gradientUnits="userSpaceOnUse" r="127.11"><stop offset="0"/><stop offset="1" stop-color="#4a1900"/></radialGradient><radialGradient id="radial-gradient-2" cx="2673.23" cy="300.44" gradientTransform="matrix(.95 -.32 .32 .95 -2461.11 786.97)" gradientUnits="userSpaceOnUse" r="106.97"><stop offset="0" stop-color="#fc8178"/><stop offset=".3" stop-color="#fda04f"/><stop offset=".59" stop-color="#feb92f"/><stop offset=".83" stop-color="#ffc91b"/><stop offset="1" stop-color="#ffce14"/></radialGradient><radialGradient id="radial-gradient-3" cx="206.9" cy="147.19" gradientUnits="userSpaceOnUse" r="56.47"><stop offset="0" stop-color="#ffce14"/><stop offset=".28" stop-color="#ffce14" stop-opacity=".66"/><stop offset=".54" stop-color="#ffce14" stop-opacity=".38"/><stop offset=".75" stop-color="#ffce14" stop-opacity=".17"/><stop offset=".91" stop-color="#ffce14" stop-opacity=".05"/><stop offset="1" stop-color="#ffce14" stop-opacity="0"/></radialGradient><radialGradient id="radial-gradient-4" cx="3765.45" cy="671.51" gradientTransform="matrix(-.95 -.32 -.32 .95 4145.05 786.97)" r="106.97" xlink:href="#radial-gradient-2"/><radialGradient id="radial-gradient-5" cx="1360.49" cy="147.19" gradientTransform="matrix(-1 0 0 1 1683.94 0)" r="56.47" xlink:href="#radial-gradient-3"/><clipPath id="clip-path"><path d="m375.67 220.16c-51-7.8-50.57 51.08-110 51.87-59.41-.79-59-59.67-110-51.87-45.37 6.95-46.28 63.77-37.59 91.7 12.94 41.61 64.65 99.84 147.37 102.79h.4c82.73-3 134.43-61.18 147.37-102.79 8.72-27.94 7.78-84.76-37.55-91.7z"/></clipPath><linearGradient id="linear-gradient" gradientTransform="matrix(1 -.08 .08 1 -633.66 76.44)" gradientUnits="userSpaceOnUse" x1="751.16" x2="818.05" y1="357.47" y2="399.36"><stop offset="0" stop-color="#fd536e"/><stop offset=".32" stop-color="#fd3e52"/><stop offset=".76" stop-color="#fe2732"/><stop offset="1" stop-color="#fe1e26"/></linearGradient><radialGradient id="radial-gradient-7" cx="-1326.67" cy="-1669.03" gradientTransform="matrix(1.12 .29 -.2 .76 1323.74 1857.21)" gradientUnits="userSpaceOnUse" r="72.4"><stop offset="0" stop-color="#d1d3d4"/><stop offset=".09" stop-color="#d1d3d4" stop-opacity=".97"/><stop offset=".2" stop-color="#d1d3d4" stop-opacity=".9"/><stop offset=".33" stop-color="#d1d3d4" stop-opacity=".77"/><stop offset=".47" stop-color="#d1d3d4" stop-opacity=".59"/><stop offset=".62" stop-color="#d1d3d4" stop-opacity=".37"/><stop offset=".78" stop-color="#d1d3d4" stop-opacity=".1"/><stop offset=".83" stop-color="#d1d3d4" stop-opacity="0"/></radialGradient><radialGradient id="radial-gradient-8" cx="-455.13" cy="-1998.06" gradientTransform="matrix(-1.12 .29 .2 .76 257.6 1857.21)" r="72.4" xlink:href="#radial-gradient-7"/><clipPath id="clip-path-2"><path d="m153.06 198.55c-11.22-.31-14.18-22.93 6.69-36.53 12.2-7.95 43.47-10.49 61.74-2.55 23.48 10.2 32 26.52 35 40.09 5 22-16.79 39-36.79 23.67-15.3-11.75-30.28-23.67-66.64-24.68z"/></clipPath><clipPath id="clip-path-3"><path d="m383.77 198.55c11.23-.31 14.23-22.93-6.68-36.55-12.2-7.95-43.47-10.49-61.74-2.55-23.48 10.2-32 26.52-35 40.09-5 22 16.79 39 36.79 23.67 15.29-11.73 30.27-23.65 66.63-24.66z"/></clipPath><path d="m246.3 83.94h31.52v4h-31.52z" transform="matrix(.6 -.8 .8 .6 36.08 244.04)"/><path d="m263.99 80.34h37.58v4h-37.58z" transform="matrix(.695 -.719 .719 .695 27.05 228.44)"/><circle cx="265.9" cy="255.02" fill="#ffce14" r="164.13" transform="matrix(.999 -.05 .05 .999 -12.4 13.59)"/><path d="m252.6 194.92c14.83 43.65 26.4 153.34-12.6 166.61s-117.59-17.66-135.08-84c-12.84-48.61 14.18-110.53 43.9-135.75 31.05-26.34 88.96 9.49 103.78 53.14z" fill="url(#radial-gradient-2)"/><path d="m195 200.5c33.38 11.09 69.83 13.74 76.78-7.19s-18.11-50.05-49.66-64.87c-34-15.95-69 1.61-78 18.17-9.3 17.09 17.46 42.8 50.88 53.89z" fill="url(#radial-gradient-3)"/><path d="m277.75 194.92c-14.82 43.65-26.44 153.34 12.61 166.61s117.59-17.66 135.08-84c12.83-48.63-14.18-110.55-43.9-135.77-31.06-26.32-88.97 9.51-103.79 53.16z" fill="url(#radial-gradient-4)"/><path d="m335.38 200.5c-33.38 11.09-69.83 13.74-76.78-7.19s18.11-50.05 49.66-64.86c34-15.95 69 1.6 78 18.17 9.27 17.08-17.49 42.79-50.88 53.88z" fill="url(#radial-gradient-5)"/><path d="m375.67 220.16c-51-7.8-50.57 51.08-110 51.87-59.41-.79-59-59.67-110-51.87-45.37 6.95-46.28 63.77-37.59 91.7 12.94 41.61 64.65 99.84 147.37 102.79h.4c82.73-3 134.43-61.18 147.37-102.79 8.72-27.94 7.78-84.76-37.55-91.7z" fill="url(#radial-gradient)"/><g clip-path="url(#clip-path)"><g fill="#fff"><path d="m188.7 280.36c-28.21-4.45-33.33-51.87-25.92-71.32s63-.93 64.2 11.11-14.82 63.91-38.28 60.21z"/><path d="m102.85 221.06c-.31-12.08 56.45-27.68 61.49-9.19s-1.13 56.7-18.77 59.81c-13.81 2.43-42.21-30.33-42.72-50.62z"/><path d="m347.1 280.36c26.95-4.45 31.84-51.87 24.76-71.32s-60.17-.93-61.34 11.11 14.16 63.91 36.58 60.21z"/><path d="m428.05 219.9c-.16-12.07-55-26.12-59.1-7.5s3.21 56.6 20.18 59.23c13.29 2.05 39.19-31.45 38.92-51.73z"/></g><path d="m95.87 419.4c9-16.44 44.16-63.27 78.38-81.28 64.25-33.82 93.26 18.44 47.73 57.64-32.42 27.92-87.43 43.28-104.47 45.93-10.1 1.57-35.6 3.11-21.64-22.29z" fill="url(#linear-gradient)"/><path d="m267.45 212.32c-.37-20.58-71.9-40.53-103.22-47.1s-83.86-3.37-87.4 14.78c-4.93 25.23 61.34 70.55 94.43 73.37 30.74 2.63 96.56-20.47 96.19-41.05z" fill="url(#radial-gradient-7)"/><path d="m275.15 212.32c.37-20.58 71.9-40.53 103.22-47.1s83.86-3.37 87.4 14.75c4.93 25.23-61.33 70.55-94.42 73.37-30.74 2.66-96.57-20.44-96.2-41.02z" fill="url(#radial-gradient-8)"/></g><path d="m153.06 198.55c-11.22-.31-14.18-22.93 6.69-36.53 12.2-7.95 43.47-10.49 61.74-2.55 23.48 10.2 32 26.52 35 40.09 5 22-16.79 39-36.79 23.67-15.3-11.75-30.28-23.67-66.64-24.68z" fill="#fff"/><g clip-path="url(#clip-path-2)"><ellipse cx="228.49" cy="190.92" rx="27.17" ry="26.06"/></g><path d="m203.06 178.33c3.55 4.38 11.87 1 8.44-3.26-3.86-4.76-12.11-1.27-8.44 3.26z" fill="#fff"/><path d="m383.77 198.55c11.23-.31 14.23-22.93-6.68-36.55-12.2-7.95-43.47-10.49-61.74-2.55-23.48 10.2-32 26.52-35 40.09-5 22 16.79 39 36.79 23.67 15.29-11.73 30.27-23.65 66.63-24.66z" fill="#fff"/><g clip-path="url(#clip-path-3)"><ellipse cx="308.34" cy="190.92" rx="27.17" ry="26.06"/></g><path d="m333.77 178.33c-3.55 4.38-11.87 1-8.44-3.26 3.86-4.76 12.12-1.27 8.44 3.26z" fill="#fff"/><path d="m154.21 202c4.77-11.18 26.09-2.62 24 3.92s-27.21 3.56-24-3.92z" fill="#fde547"/><path d="m383.2 203.43c-4.77-11.18-26.09-2.62-24 3.92s27.18 3.54 24-3.92z" fill="#fde547"/><path d="m230.67 148.93c-21.78-13.07-41.1-9.75-41.29-9.72l-.54-3c.83-.15 20.63-3.55 43.37 10.1z" fill="#ffe528"/><path d="m317.08 144.54-1.07-2.8c.79-.3 19.67-7.33 38 0l-1.11 2.79c-17.25-6.91-35.63-.06-35.82.01z" fill="#ffe528"/><path d="m285.7 93.4h22.96v4h-22.96z" transform="matrix(.745 -.667 .667 .745 12.09 222.46)"/></svg>